# xmcd CD database file
#
# Track frame offsets:
#	150
#	26217
#	46302
#	73490
#	97445
#	114817
#	129175
#	150717
#	172022
#	204667
#
# Disc length: 3034 seconds
#
# Revision: 6
# Processed by: cddbd v1.5.2PL0 Copyright (c) Steve Scherf et al.
# Submitted via: CDex 1.51
#
DISCID=910bd80a
DTITLE=The Robert Cray Band - Sweet Potato Pie
DYEAR=1997
DGENRE=Blues
TTITLE0=Nothing Against You
TTITLE1=Do That For Me
TTITLE2=Back Home
TTITLE3=The One In The Middle
TTITLE4=Little Birds
TTITLE5=Trick Or Treat
TTITLE6=Simple Things
TTITLE7=Jealous Minds
TTITLE8=Not Bad For Love
TTITLE9=I Can't Quit
EXTD=YEAR: 1997
EXTT0=
EXTT1=
EXTT2=
EXTT3=
EXTT4=
EXTT5=
EXTT6=
EXTT7=
EXTT8=
EXTT9=
PLAYORDER=
